<svg xmlns="http://www.w3.org/2000/svg" viewBox="0 0 216.76 147.49"><defs><style>.cls-1,.cls-3{fill:#c30116;}.cls-2{fill:#f60;}.cls-3{fill-rule:evenodd;}</style></defs><g id="Layer_2" data-name="Layer 2"><g id="Layer_1-2" data-name="Layer 1"><path class="cls-1" d="M179.15,86.78H165.92c-1.82-.09-2.39-.94-2.48-2.44l-.38-32.89c.13-1.38,1-2,2.73-2H178.3c1.79,0,2.76.86,2.62,2.87l.46,32.52a1.84,1.84,0,0,1-2.23,1.91m-3.28-62.72h-24.8a27.8,27.8,0,0,0-3.81.26c-.52.2-1.06.39-1.59.58-.13.66-.33,1.52-.63,2.66l-1.27,4.77v0l-15.65,58c1.84,11,10.83,18.47,22.92,18.47h29c1.42,0,1.44.87,1.45,1.59l0,5.22c0,1.22-.4,1.64-1.9,1.7l-34.11,0c5.55,8,5.9,19.61,2.77,27.38h45.28c13.67,0,23.32-9.56,23.25-22.94l-.28-51h0l.12-23.91c.07-13.33-9.62-22.85-23.27-22.85Z"/><path class="cls-1" d="M29.75,77.91a1.23,1.23,0,0,1-1.77,0,1.25,1.25,0,0,1,0-1.77l2.73-2.73a1.25,1.25,0,0,1,1.77,1.77Zm7,8.2A1.25,1.25,0,0,1,35,84.34l3.86-3.87a1.26,1.26,0,0,1,1.78,1.78Zm-6.88-.85a1.25,1.25,0,1,1-1.77-1.77L36.65,75a1.25,1.25,0,0,1,1.76,1.78Zm15,3.13c-1.72-5-1.84-11.27-5.61-14.85-3-2.87-10.13-2.71-14.39-5.36-1-.63-2.71-2.32.17-3.61,5.8-2.6,18.77-6,23.43-7.58,8.33-2.74,10-2.85,8,4.86-1.13,4.3-5.36,20.48-8.53,26.63C47.22,89.72,45.57,90.64,44.79,88.39Zm6.09-64.33H35l.33-15.69c-.09-5.15-1.79-6.53-6.94-6.57H6.52c-4.8.05-6.4,3-6.48,7.32l0,65.2c0,16.21,14.26,32,30.62,34.55H63.89a23.54,23.54,0,0,0,16.64-6.31,11.11,11.11,0,0,1-1-1,10.64,10.64,0,0,1-2.21-9.31h0c.57-2.44,1.21-4.8,1.85-7.17l.66-2.43v0l7-26.06C85.17,39.46,68.45,24.06,50.88,24.06Z"/><path class="cls-2" d="M122,128.1c.45-2.37,1.78-4.46,4.67-4.46a4.3,4.3,0,0,1,4.25,4.46Zm-10.36,3.76c.23,7.93,6.2,15.63,16.85,15.63a20.37,20.37,0,0,0,10.16-2.66c1.71-1,2-2.55,1-4.34l-.85-1.51c-1-1.85-2.44-2.08-4.32-1.21a12.21,12.21,0,0,1-5.4,1.38c-3.19,0-6.25-1.67-7.11-5.32h15.69a3.31,3.31,0,0,0,3.26-3.3c-.24-8-5.35-14.24-14.21-14.24C117.1,116.29,111.4,123.12,111.66,131.86ZM91.93,143.61a2.94,2.94,0,0,0,3.28,3.19h3.64c2.09,0,3.15-1.1,3.09-3.19l-.25-8.39c-.15-4.86,2-8.92,6.8-8.92a2.74,2.74,0,0,0,3.08-3.18l-.09-3.24c-.07-2.09-.79-3.19-2.82-3.19-3.76,0-6.82,4.11-7.71,7.18h-.12a15.6,15.6,0,0,0,.06-1.85l-.06-1.85A2.94,2.94,0,0,0,97.56,117H94.31a2.75,2.75,0,0,0-3.08,3.19ZM65.07,132c-.13-4.52,2.91-7.35,6.56-7.35s6.85,2.83,7,7.35-2.91,7.17-6.56,7.17A7,7,0,0,1,65.07,132Zm-10.13,0c.28,9.32,8,15.51,17.37,15.51S89,141.3,88.75,132s-8-15.69-17.43-15.69S54.66,122.6,54.94,132ZM37.48,136.2c.26,8.86,8.49,10.89,12.88,10.89,2.67,0,4.09-.81,4-3.19l-.08-2.6c-.06-2.2-.95-2.9-3.28-3.19a3.67,3.67,0,0,1-3.58-3.76l-.27-9h3.12c2,0,3.09-1.1,3-3.18l0-1.45A2.94,2.94,0,0,0,50,117.51H46.93l-.16-2.7c-.12-2.08-1.19-3.18-3.28-3.18H40.13c-2.08,0-3.21,1.1-3.08,3.18l.16,2.7h-1.1A2.75,2.75,0,0,0,33,120.69l0,1.45a2.92,2.92,0,0,0,3.22,3.18h.87Zm-27,8.57a19.93,19.93,0,0,0,10,2.72c7.64,0,12.14-4.23,12-9.78-.31-10.36-14.2-8.63-14.31-12,0-.81.48-1.57,2.62-1.57a14.68,14.68,0,0,1,5.13,1.16c2,.75,3.37.47,4.18-1.39l.65-1.39c.82-1.79.54-3.41-1.28-4.28a20,20,0,0,0-8.51-1.91c-6.89,0-12.29,3.3-12.11,9.44C9.12,136.2,23,134.52,23.12,138c0,.92-.64,1.68-2.67,1.68a13.77,13.77,0,0,1-5.72-1.57c-2-.92-3.26-.75-4.37.93l-.83,1.33C8.48,142.11,8.71,143.79,10.47,144.77Z"/><path class="cls-3" d="M141.38,21.59c4.09-1.34,8.27-2.61,11.24-6,2.48-2.86,2.92-6.89-1-10-2.65-2.08-6.56-2.74-9.75-3.06a35.67,35.67,0,0,0-5.28,0c-2.4.14-4,.54-5.45.64a6.91,6.91,0,0,0-9.74-1.91c-4,2.26-8,4.47-12,6.69-4.68,2.61-5.78,3.31-7.1,8.37L84.21,83.73c-.85,3.17-1.73,6.31-2.49,9.5A6.14,6.14,0,0,0,83,98.63,7.43,7.43,0,0,0,87.43,101l23.82,6.36a7.26,7.26,0,0,0,5,.06,6.31,6.31,0,0,0,3.74-4.08c.48-1.46.85-3.18,1.25-4.7L139.43,31.2c.42-1.63.83-3.15,1.26-4.78,1.15-4.33.46-2.86.69-4.83m-14-4.43c-.17.32-.73,4-4.73,4-5.35,0-6.4-8-1-9.18a4.28,4.28,0,0,1,3,.37A4.89,4.89,0,0,1,127.1,15c1.86.45,8.3,0,10.72-.68L134.3,8.4c2.64-.71,8.74-.36,11.49.54.34.11.57.15.91.29,2.16.88,2.83,1.52,1.47,2.92a8.64,8.64,0,0,1-1.21,1,23.61,23.61,0,0,1-8.83,3.45C135.81,17.07,129.3,17.79,127.37,17.16Z"/></g></g></svg>